<?xml version="1.0" encoding="UTF-8" standalone="no"?>
<!-- Created with Inkscape (http://www.inkscape.org/) -->
<svg
   xmlns:dc="http://purl.org/dc/elements/1.1/"
   xmlns:cc="http://creativecommons.org/ns#"
   xmlns:rdf="http://www.w3.org/1999/02/22-rdf-syntax-ns#"
   xmlns:svg="http://www.w3.org/2000/svg"
   xmlns="http://www.w3.org/2000/svg"
   xmlns:xlink="http://www.w3.org/1999/xlink"
   xmlns:sodipodi="http://sodipodi.sourceforge.net/DTD/sodipodi-0.dtd"
   xmlns:inkscape="http://www.inkscape.org/namespaces/inkscape"
   width="64px"
   height="64px"
   id="svg4485"
   sodipodi:version="0.32"
   inkscape:version="0.46"
   sodipodi:docname="ZigBee.svg"
   inkscape:output_extension="org.inkscape.output.svg.inkscape"
   inkscape:export-filename="/home/afosterw/Documents/ZigBee.png"
   inkscape:export-xdpi="90"
   inkscape:export-ydpi="90">
  <defs
     id="defs4487">
    <linearGradient
       id="linearGradient4114">
      <stop
         style="stop-color:#000000;stop-opacity:1"
         offset="0"
         id="stop4116" />
      <stop
         style="stop-color:#000000;stop-opacity:0"
         offset="1"
         id="stop4118" />
    </linearGradient>
    <linearGradient
       id="linearGradient4076">
      <stop
         style="stop-color:#ffe253;stop-opacity:1"
         offset="0"
         id="stop4078" />
      <stop
         style="stop-color:#ffca1c;stop-opacity:1"
         offset="1"
         id="stop4080" />
    </linearGradient>
    <linearGradient
       id="linearGradient4126">
      <stop
         style="stop-color:#ffffff;stop-opacity:1"
         offset="0"
         id="stop4128" />
      <stop
         style="stop-color:#ffffff;stop-opacity:0.16494845"
         offset="1"
         id="stop4130" />
    </linearGradient>
    <linearGradient
       id="linearGradient4092">
      <stop
         style="stop-color:#3778ae;stop-opacity:1"
         offset="0"
         id="stop4094" />
      <stop
         style="stop-color:#366c99;stop-opacity:1"
         offset="1"
         id="stop4096" />
    </linearGradient>
    <radialGradient
       inkscape:collect="always"
       xlink:href="#linearGradient4114"
       id="radialGradient8039"
       gradientUnits="userSpaceOnUse"
       gradientTransform="scale(1.64399,0.608276)"
       cx="15.115514"
       cy="63.965388"
       fx="15.115514"
       fy="63.965388"
       r="12.289036" />
    <linearGradient
       inkscape:collect="always"
       xlink:href="#linearGradient4076"
       id="linearGradient8041"
       gradientUnits="userSpaceOnUse"
       gradientTransform="matrix(0.217175,0,0,0.217175,52.21317,9.143192)"
       x1="119.1908"
       y1="89.130005"
       x2="116.9651"
       y2="169.27855" />
    <linearGradient
       inkscape:collect="always"
       xlink:href="#linearGradient4126"
       id="linearGradient8043"
       gradientUnits="userSpaceOnUse"
       gradientTransform="matrix(0.217175,0,0,0.217175,58.40714,15.31186)"
       x1="94.693123"
       y1="112.51051"
       x2="94.693123"
       y2="64.052887" />
    <linearGradient
       inkscape:collect="always"
       xlink:href="#linearGradient4092"
       id="linearGradient8045"
       gradientUnits="userSpaceOnUse"
       gradientTransform="matrix(0.217175,0,0,0.217175,51.56706,-11.57979)"
       x1="59.728527"
       y1="101.99766"
       x2="142.62"
       y2="101.99766" />
    <linearGradient
       inkscape:collect="always"
       xlink:href="#linearGradient4126"
       id="linearGradient8047"
       gradientUnits="userSpaceOnUse"
       gradientTransform="matrix(0.217175,0,0,0.217175,51.56706,-11.57979)"
       x1="94.693123"
       y1="112.51051"
       x2="94.693123"
       y2="64.052887" />
  </defs>
  <sodipodi:namedview
     id="base"
     pagecolor="#ffffff"
     bordercolor="#666666"
     borderopacity="1.0"
     inkscape:pageopacity="0.0"
     inkscape:pageshadow="2"
     inkscape:zoom="4.765625"
     inkscape:cx="15.625716"
     inkscape:cy="12.391165"
     inkscape:current-layer="layer1"
     showgrid="true"
     inkscape:document-units="px"
     inkscape:grid-bbox="true"
     showguides="true"
     inkscape:guide-bbox="true"
     inkscape:window-width="1263"
     inkscape:window-height="842"
     inkscape:window-x="531"
     inkscape:window-y="154">
    <sodipodi:guide
       orientation="1,0"
       position="-338.38274,-104.90893"
       id="guide7370" />
  </sodipodi:namedview>
  <metadata
     id="metadata4490">
    <rdf:RDF>
      <cc:Work
         rdf:about="">
        <dc:format>image/svg+xml</dc:format>
        <dc:type
           rdf:resource="http://purl.org/dc/dcmitype/StillImage" />
      </cc:Work>
    </rdf:RDF>
  </metadata>
  <g
     id="layer1"
     inkscape:label="Layer 1"
     inkscape:groupmode="layer">
    <g
       id="g7578"
       style="opacity:1" />
    <g
       id="g7964"
       transform="matrix(0.5347067,0,0,0.5347067,16.35759,-46.568693)">
      <g
         transform="translate(92.327868,-7.9737652)"
         id="g7860">
        <path
           sodipodi:nodetypes="ccccccc"
           id="rect7397"
           d="M -82.060682,95.884087 L -41.618463,95.884087 L -9.1987915,123.38361 L -9.1987915,214.16376 L -114.1656,214.16376 L -114.1656,123.59344 L -82.060682,95.884087 z"
           style="opacity:1;fill:#0e1e2d;fill-opacity:1;stroke:#000000;stroke-opacity:1" />
        <g
           style="opacity:1"
           id="g7544">
          <g
             id="g7531">
            <rect
               y="95.999992"
               x="-77.63636"
               height="31.636326"
               width="32.000023"
               id="rect7407"
               style="opacity:1;fill:#0f4d76;fill-opacity:1;stroke:#000000;stroke-opacity:1" />
            <path
               transform="translate(2,0)"
               d="M -53.454546,112 A 9.454546,9.454546 0 1 1 -72.363638,112 A 9.454546,9.454546 0 1 1 -53.454546,112 z"
               sodipodi:ry="9.454546"
               sodipodi:rx="9.454546"
               sodipodi:cy="112"
               sodipodi:cx="-62.909092"
               id="path7405"
               style="opacity:1;fill:#ffffff;fill-opacity:0.99559476;stroke:#000000;stroke-opacity:1"
               sodipodi:type="arc" />
            <path
               sodipodi:type="star"
               style="opacity:1;fill:#000000;fill-opacity:1;stroke:none;stroke-width:0;stroke-miterlimit:4;stroke-dasharray:none;stroke-opacity:1"
               id="path7417"
               sodipodi:sides="3"
               sodipodi:cx="-161.45454"
               sodipodi:cy="59.636364"
               sodipodi:r1="1.7614541"
               sodipodi:r2="3.8354588"
               sodipodi:arg1="1.139937"
               sodipodi:arg2="2.1871346"
               inkscape:flatsided="true"
               inkscape:rounded="0"
               inkscape:randomized="0"
               d="M -160.71887,61.236834 L -163.20843,59.473242 L -160.43633,58.199016 L -160.71887,61.236834 z"
               transform="matrix(0.99818,-6.0304298e-2,6.0304298e-2,0.99818,90.193868,42.615772)" />
            <path
               transform="matrix(0.99818,-6.0304298e-2,6.0304298e-2,0.99818,93.131573,41.015772)"
               d="M -160.71887,61.236834 L -163.20843,59.473242 L -160.43633,58.199016 L -160.71887,61.236834 z"
               inkscape:randomized="0"
               inkscape:rounded="0"
               inkscape:flatsided="true"
               sodipodi:arg2="2.1871346"
               sodipodi:arg1="1.139937"
               sodipodi:r2="3.8354588"
               sodipodi:r1="1.7614541"
               sodipodi:cy="59.636364"
               sodipodi:cx="-161.45454"
               sodipodi:sides="3"
               id="path7435"
               style="opacity:1;fill:#000000;fill-opacity:1;stroke:none;stroke-width:0;stroke-miterlimit:4;stroke-dasharray:none;stroke-opacity:1"
               sodipodi:type="star" />
            <path
               sodipodi:type="star"
               style="opacity:1;fill:#000000;fill-opacity:1;stroke:none;stroke-width:0;stroke-miterlimit:4;stroke-dasharray:none;stroke-opacity:1"
               id="path7437"
               sodipodi:sides="3"
               sodipodi:cx="-161.45454"
               sodipodi:cy="59.636364"
               sodipodi:r1="1.7614541"
               sodipodi:r2="3.8354588"
               sodipodi:arg1="1.139937"
               sodipodi:arg2="2.1871346"
               inkscape:flatsided="true"
               inkscape:rounded="0"
               inkscape:randomized="0"
               d="M -160.71887,61.236834 L -163.20843,59.473242 L -160.43633,58.199016 L -160.71887,61.236834 z"
               transform="matrix(0.99818,-6.0304298e-2,6.0304298e-2,0.99818,96.698786,39.048559)" />
            <path
               transform="matrix(0.99818,-6.0304298e-2,6.0304298e-2,0.99818,100.10862,37.212493)"
               d="M -160.71887,61.236834 L -163.20843,59.473242 L -160.43633,58.199016 L -160.71887,61.236834 z"
               inkscape:randomized="0"
               inkscape:rounded="0"
               inkscape:flatsided="true"
               sodipodi:arg2="2.1871346"
               sodipodi:arg1="1.139937"
               sodipodi:r2="3.8354588"
               sodipodi:r1="1.7614541"
               sodipodi:cy="59.636364"
               sodipodi:cx="-161.45454"
               sodipodi:sides="3"
               id="path7439"
               style="opacity:1;fill:#000000;fill-opacity:1;stroke:none;stroke-width:0;stroke-miterlimit:4;stroke-dasharray:none;stroke-opacity:1"
               sodipodi:type="star" />
            <path
               sodipodi:type="star"
               style="opacity:1;fill:#000000;fill-opacity:1;stroke:none;stroke-width:0;stroke-miterlimit:4;stroke-dasharray:none;stroke-opacity:1"
               id="path7441"
               sodipodi:sides="3"
               sodipodi:cx="-161.45454"
               sodipodi:cy="59.636364"
               sodipodi:r1="1.7614541"
               sodipodi:r2="3.8354588"
               sodipodi:arg1="1.139937"
               sodipodi:arg2="2.1871346"
               inkscape:flatsided="true"
               inkscape:rounded="0"
               inkscape:randomized="0"
               d="M -160.71887,61.236834 L -163.20843,59.473242 L -160.43633,58.199016 L -160.71887,61.236834 z"
               transform="matrix(0.99818,-6.0304298e-2,6.0304298e-2,0.99818,100.00371,40.989542)" />
            <path
               transform="matrix(0.99818,-6.0304298e-2,6.0304298e-2,0.99818,99.898788,45.055116)"
               d="M -160.71887,61.236834 L -163.20843,59.473242 L -160.43633,58.199016 L -160.71887,61.236834 z"
               inkscape:randomized="0"
               inkscape:rounded="0"
               inkscape:flatsided="true"
               sodipodi:arg2="2.1871346"
               sodipodi:arg1="1.139937"
               sodipodi:r2="3.8354588"
               sodipodi:r1="1.7614541"
               sodipodi:cy="59.636364"
               sodipodi:cx="-161.45454"
               sodipodi:sides="3"
               id="path7443"
               style="opacity:1;fill:#000000;fill-opacity:1;stroke:none;stroke-width:0;stroke-miterlimit:4;stroke-dasharray:none;stroke-opacity:1"
               sodipodi:type="star" />
            <path
               sodipodi:type="star"
               style="opacity:1;fill:#000000;fill-opacity:1;stroke:none;stroke-width:0;stroke-miterlimit:4;stroke-dasharray:none;stroke-opacity:1"
               id="path7445"
               sodipodi:sides="3"
               sodipodi:cx="-161.45454"
               sodipodi:cy="59.636364"
               sodipodi:r1="1.7614541"
               sodipodi:r2="3.8354588"
               sodipodi:arg1="1.139937"
               sodipodi:arg2="2.1871346"
               inkscape:flatsided="true"
               inkscape:rounded="0"
               inkscape:randomized="0"
               d="M -160.71887,61.236834 L -163.20843,59.473242 L -160.43633,58.199016 L -160.71887,61.236834 z"
               transform="matrix(0.99818,-6.0304298e-2,6.0304298e-2,0.99818,99.767638,48.464952)" />
            <path
               sodipodi:type="star"
               style="opacity:1;fill:#000000;fill-opacity:1;stroke:none;stroke-width:0;stroke-miterlimit:4;stroke-dasharray:none;stroke-opacity:1"
               id="path7447"
               sodipodi:sides="3"
               sodipodi:cx="-161.45454"
               sodipodi:cy="59.636364"
               sodipodi:r1="1.7614541"
               sodipodi:r2="3.8354588"
               sodipodi:arg1="1.139937"
               sodipodi:arg2="2.1871346"
               inkscape:flatsided="true"
               inkscape:rounded="0"
               inkscape:randomized="0"
               d="M -160.71887,61.236834 L -163.20843,59.473242 L -160.43633,58.199016 L -160.71887,61.236834 z"
               transform="matrix(0.99818,-6.0304298e-2,6.0304298e-2,0.99818,97.01354,46.812493)" />
            <path
               transform="matrix(0.99818,-6.0304298e-2,6.0304298e-2,0.99818,93.079113,44.399378)"
               d="M -160.71887,61.236834 L -163.20843,59.473242 L -160.43633,58.199016 L -160.71887,61.236834 z"
               inkscape:randomized="0"
               inkscape:rounded="0"
               inkscape:flatsided="true"
               sodipodi:arg2="2.1871346"
               sodipodi:arg1="1.139937"
               sodipodi:r2="3.8354588"
               sodipodi:r1="1.7614541"
               sodipodi:cy="59.636364"
               sodipodi:cx="-161.45454"
               sodipodi:sides="3"
               id="path7449"
               style="opacity:1;fill:#000000;fill-opacity:1;stroke:none;stroke-width:0;stroke-miterlimit:4;stroke-dasharray:none;stroke-opacity:1"
               sodipodi:type="star" />
          </g>
          <path
             sodipodi:type="arc"
             style="opacity:1;fill:#eef9f3;fill-opacity:1;stroke:#ffffff;stroke-width:0;stroke-miterlimit:4;stroke-dasharray:none;stroke-dashoffset:0;stroke-opacity:1"
             id="path7456"
             sodipodi:cx="-115.61967"
             sodipodi:cy="96.94426"
             sodipodi:rx="3.147541"
             sodipodi:ry="3.147541"
             d="M -112.47213,96.94426 A 3.147541,3.147541 0 1 1 -118.76721,96.94426 A 3.147541,3.147541 0 1 1 -112.47213,96.94426 z"
             transform="translate(6.0852459,32.314754)" />
          <path
             transform="translate(6.0852459,40.708197)"
             d="M -112.47213,96.94426 A 3.147541,3.147541 0 1 1 -118.76721,96.94426 A 3.147541,3.147541 0 1 1 -112.47213,96.94426 z"
             sodipodi:ry="3.147541"
             sodipodi:rx="3.147541"
             sodipodi:cy="96.94426"
             sodipodi:cx="-115.61967"
             id="path7458"
             style="opacity:1;fill:#eef9f3;fill-opacity:1;stroke:#ffffff;stroke-width:0;stroke-miterlimit:4;stroke-dasharray:none;stroke-dashoffset:0;stroke-opacity:1"
             sodipodi:type="arc" />
          <path
             transform="translate(6.0852459,49.521311)"
             d="M -112.47213,96.94426 A 3.147541,3.147541 0 1 1 -118.76721,96.94426 A 3.147541,3.147541 0 1 1 -112.47213,96.94426 z"
             sodipodi:ry="3.147541"
             sodipodi:rx="3.147541"
             sodipodi:cy="96.94426"
             sodipodi:cx="-115.61967"
             id="path7460"
             style="opacity:1;fill:#eef9f3;fill-opacity:1;stroke:#ffffff;stroke-width:0;stroke-miterlimit:4;stroke-dasharray:none;stroke-dashoffset:0;stroke-opacity:1"
             sodipodi:type="arc" />
          <path
             sodipodi:type="arc"
             style="opacity:1;fill:#eef9f3;fill-opacity:1;stroke:#ffffff;stroke-width:0;stroke-miterlimit:4;stroke-dasharray:none;stroke-dashoffset:0;stroke-opacity:1"
             id="path7462"
             sodipodi:cx="-115.61967"
             sodipodi:cy="96.94426"
             sodipodi:rx="3.147541"
             sodipodi:ry="3.147541"
             d="M -112.47213,96.94426 A 3.147541,3.147541 0 1 1 -118.76721,96.94426 A 3.147541,3.147541 0 1 1 -112.47213,96.94426 z"
             transform="translate(6.0852459,57.914754)" />
          <path
             transform="translate(6.0852459,67.147541)"
             d="M -112.47213,96.94426 A 3.147541,3.147541 0 1 1 -118.76721,96.94426 A 3.147541,3.147541 0 1 1 -112.47213,96.94426 z"
             sodipodi:ry="3.147541"
             sodipodi:rx="3.147541"
             sodipodi:cy="96.94426"
             sodipodi:cx="-115.61967"
             id="path7464"
             style="opacity:1;fill:#eef9f3;fill-opacity:1;stroke:#ffffff;stroke-width:0;stroke-miterlimit:4;stroke-dasharray:none;stroke-dashoffset:0;stroke-opacity:1"
             sodipodi:type="arc" />
          <path
             sodipodi:type="arc"
             style="opacity:1;fill:#eef9f3;fill-opacity:1;stroke:#ffffff;stroke-width:0;stroke-miterlimit:4;stroke-dasharray:none;stroke-dashoffset:0;stroke-opacity:1"
             id="path7466"
             sodipodi:cx="-115.61967"
             sodipodi:cy="96.94426"
             sodipodi:rx="3.147541"
             sodipodi:ry="3.147541"
             d="M -112.47213,96.94426 A 3.147541,3.147541 0 1 1 -118.76721,96.94426 A 3.147541,3.147541 0 1 1 -112.47213,96.94426 z"
             transform="translate(6.0852459,75.540984)" />
          <path
             sodipodi:type="arc"
             style="opacity:1;fill:#eef9f3;fill-opacity:1;stroke:#ffffff;stroke-width:0;stroke-miterlimit:4;stroke-dasharray:none;stroke-dashoffset:0;stroke-opacity:1"
             id="path7468"
             sodipodi:cx="-115.61967"
             sodipodi:cy="96.94426"
             sodipodi:rx="3.147541"
             sodipodi:ry="3.147541"
             d="M -112.47213,96.94426 A 3.147541,3.147541 0 1 1 -118.76721,96.94426 A 3.147541,3.147541 0 1 1 -112.47213,96.94426 z"
             transform="translate(6.0852459,84.354098)" />
          <path
             transform="translate(6.0852459,92.747541)"
             d="M -112.47213,96.94426 A 3.147541,3.147541 0 1 1 -118.76721,96.94426 A 3.147541,3.147541 0 1 1 -112.47213,96.94426 z"
             sodipodi:ry="3.147541"
             sodipodi:rx="3.147541"
             sodipodi:cy="96.94426"
             sodipodi:cx="-115.61967"
             id="path7470"
             style="opacity:1;fill:#eef9f3;fill-opacity:1;stroke:#ffffff;stroke-width:0;stroke-miterlimit:4;stroke-dasharray:none;stroke-dashoffset:0;stroke-opacity:1"
             sodipodi:type="arc" />
          <path
             transform="translate(6.0852459,101.77049)"
             d="M -112.47213,96.94426 A 3.147541,3.147541 0 1 1 -118.76721,96.94426 A 3.147541,3.147541 0 1 1 -112.47213,96.94426 z"
             sodipodi:ry="3.147541"
             sodipodi:rx="3.147541"
             sodipodi:cy="96.94426"
             sodipodi:cx="-115.61967"
             id="path7472"
             style="opacity:1;fill:#eef9f3;fill-opacity:1;stroke:#ffffff;stroke-width:0;stroke-miterlimit:4;stroke-dasharray:none;stroke-dashoffset:0;stroke-opacity:1"
             sodipodi:type="arc" />
          <path
             sodipodi:type="arc"
             style="opacity:1;fill:#eef9f3;fill-opacity:1;stroke:#ffffff;stroke-width:0;stroke-miterlimit:4;stroke-dasharray:none;stroke-dashoffset:0;stroke-opacity:1"
             id="path7474"
             sodipodi:cx="-115.61967"
             sodipodi:cy="96.94426"
             sodipodi:rx="3.147541"
             sodipodi:ry="3.147541"
             d="M -112.47213,96.94426 A 3.147541,3.147541 0 1 1 -118.76721,96.94426 A 3.147541,3.147541 0 1 1 -112.47213,96.94426 z"
             transform="translate(6.0852459,110.16393)" />
          <path
             transform="translate(101.56066,32.314754)"
             d="M -112.47213,96.94426 A 3.147541,3.147541 0 1 1 -118.76721,96.94426 A 3.147541,3.147541 0 1 1 -112.47213,96.94426 z"
             sodipodi:ry="3.147541"
             sodipodi:rx="3.147541"
             sodipodi:cy="96.94426"
             sodipodi:cx="-115.61967"
             id="path7476"
             style="opacity:1;fill:#eef9f3;fill-opacity:1;stroke:#ffffff;stroke-width:0;stroke-miterlimit:4;stroke-dasharray:none;stroke-dashoffset:0;stroke-opacity:1"
             sodipodi:type="arc" />
          <path
             sodipodi:type="arc"
             style="opacity:1;fill:#eef9f3;fill-opacity:1;stroke:#ffffff;stroke-width:0;stroke-miterlimit:4;stroke-dasharray:none;stroke-dashoffset:0;stroke-opacity:1"
             id="path7478"
             sodipodi:cx="-115.61967"
             sodipodi:cy="96.94426"
             sodipodi:rx="3.147541"
             sodipodi:ry="3.147541"
             d="M -112.47213,96.94426 A 3.147541,3.147541 0 1 1 -118.76721,96.94426 A 3.147541,3.147541 0 1 1 -112.47213,96.94426 z"
             transform="translate(101.56066,40.708197)" />
          <path
             sodipodi:type="arc"
             style="opacity:1;fill:#eef9f3;fill-opacity:1;stroke:#ffffff;stroke-width:0;stroke-miterlimit:4;stroke-dasharray:none;stroke-dashoffset:0;stroke-opacity:1"
             id="path7480"
             sodipodi:cx="-115.61967"
             sodipodi:cy="96.94426"
             sodipodi:rx="3.147541"
             sodipodi:ry="3.147541"
             d="M -112.47213,96.94426 A 3.147541,3.147541 0 1 1 -118.76721,96.94426 A 3.147541,3.147541 0 1 1 -112.47213,96.94426 z"
             transform="translate(101.56066,49.521311)" />
          <path
             transform="translate(101.56066,57.914754)"
             d="M -112.47213,96.94426 A 3.147541,3.147541 0 1 1 -118.76721,96.94426 A 3.147541,3.147541 0 1 1 -112.47213,96.94426 z"
             sodipodi:ry="3.147541"
             sodipodi:rx="3.147541"
             sodipodi:cy="96.94426"
             sodipodi:cx="-115.61967"
             id="path7482"
             style="opacity:1;fill:#eef9f3;fill-opacity:1;stroke:#ffffff;stroke-width:0;stroke-miterlimit:4;stroke-dasharray:none;stroke-dashoffset:0;stroke-opacity:1"
             sodipodi:type="arc" />
          <path
             sodipodi:type="arc"
             style="opacity:1;fill:#eef9f3;fill-opacity:1;stroke:#ffffff;stroke-width:0;stroke-miterlimit:4;stroke-dasharray:none;stroke-dashoffset:0;stroke-opacity:1"
             id="path7484"
             sodipodi:cx="-115.61967"
             sodipodi:cy="96.94426"
             sodipodi:rx="3.147541"
             sodipodi:ry="3.147541"
             d="M -112.47213,96.94426 A 3.147541,3.147541 0 1 1 -118.76721,96.94426 A 3.147541,3.147541 0 1 1 -112.47213,96.94426 z"
             transform="translate(101.56066,67.147541)" />
          <path
             transform="translate(101.56066,75.540984)"
             d="M -112.47213,96.94426 A 3.147541,3.147541 0 1 1 -118.76721,96.94426 A 3.147541,3.147541 0 1 1 -112.47213,96.94426 z"
             sodipodi:ry="3.147541"
             sodipodi:rx="3.147541"
             sodipodi:cy="96.94426"
             sodipodi:cx="-115.61967"
             id="path7486"
             style="opacity:1;fill:#eef9f3;fill-opacity:1;stroke:#ffffff;stroke-width:0;stroke-miterlimit:4;stroke-dasharray:none;stroke-dashoffset:0;stroke-opacity:1"
             sodipodi:type="arc" />
          <path
             transform="translate(101.56066,84.354098)"
             d="M -112.47213,96.94426 A 3.147541,3.147541 0 1 1 -118.76721,96.94426 A 3.147541,3.147541 0 1 1 -112.47213,96.94426 z"
             sodipodi:ry="3.147541"
             sodipodi:rx="3.147541"
             sodipodi:cy="96.94426"
             sodipodi:cx="-115.61967"
             id="path7488"
             style="opacity:1;fill:#eef9f3;fill-opacity:1;stroke:#ffffff;stroke-width:0;stroke-miterlimit:4;stroke-dasharray:none;stroke-dashoffset:0;stroke-opacity:1"
             sodipodi:type="arc" />
          <path
             sodipodi:type="arc"
             style="opacity:1;fill:#eef9f3;fill-opacity:1;stroke:#ffffff;stroke-width:0;stroke-miterlimit:4;stroke-dasharray:none;stroke-dashoffset:0;stroke-opacity:1"
             id="path7490"
             sodipodi:cx="-115.61967"
             sodipodi:cy="96.94426"
             sodipodi:rx="3.147541"
             sodipodi:ry="3.147541"
             d="M -112.47213,96.94426 A 3.147541,3.147541 0 1 1 -118.76721,96.94426 A 3.147541,3.147541 0 1 1 -112.47213,96.94426 z"
             transform="translate(101.56066,92.747541)" />
          <path
             sodipodi:type="arc"
             style="opacity:1;fill:#eef9f3;fill-opacity:1;stroke:#ffffff;stroke-width:0;stroke-miterlimit:4;stroke-dasharray:none;stroke-dashoffset:0;stroke-opacity:1"
             id="path7492"
             sodipodi:cx="-115.61967"
             sodipodi:cy="96.94426"
             sodipodi:rx="3.147541"
             sodipodi:ry="3.147541"
             d="M -112.47213,96.94426 A 3.147541,3.147541 0 1 1 -118.76721,96.94426 A 3.147541,3.147541 0 1 1 -112.47213,96.94426 z"
             transform="translate(101.56066,101.77049)" />
          <path
             transform="translate(101.56066,110.16393)"
             d="M -112.47213,96.94426 A 3.147541,3.147541 0 1 1 -118.76721,96.94426 A 3.147541,3.147541 0 1 1 -112.47213,96.94426 z"
             sodipodi:ry="3.147541"
             sodipodi:rx="3.147541"
             sodipodi:cy="96.94426"
             sodipodi:cx="-115.61967"
             id="path7494"
             style="opacity:1;fill:#eef9f3;fill-opacity:1;stroke:#ffffff;stroke-width:0;stroke-miterlimit:4;stroke-dasharray:none;stroke-dashoffset:0;stroke-opacity:1"
             sodipodi:type="arc" />
        </g>
        <path
           sodipodi:type="arc"
           style="opacity:1;fill:none;fill-opacity:1;stroke:#d2a11e;stroke-width:3;stroke-miterlimit:4;stroke-dasharray:none;stroke-dashoffset:0;stroke-opacity:1"
           id="path7614"
           sodipodi:cx="-33.993443"
           sodipodi:cy="135.34427"
           sodipodi:rx="6.5049176"
           sodipodi:ry="6.5049176"
           d="M -27.488525,135.34427 A 6.5049176,6.5049176 0 1 1 -40.49836,135.34427 A 6.5049176,6.5049176 0 1 1 -27.488525,135.34427 z"
           transform="translate(0.2098361,0.2098361)" />
        <path
           sodipodi:type="arc"
           style="opacity:1;fill:none;fill-opacity:1;stroke:#d2a11e;stroke-width:0.5;stroke-miterlimit:4;stroke-dasharray:none;stroke-dashoffset:0;stroke-opacity:1"
           id="path7616"
           sodipodi:cx="-34.203278"
           sodipodi:cy="135.13443"
           sodipodi:rx="2.0196722"
           sodipodi:ry="2.0196722"
           d="M -32.183605,135.13443 A 2.0196722,2.0196722 0 1 1 -36.22295,135.13443 A 2.0196722,2.0196722 0 1 1 -32.183605,135.13443 z"
           transform="translate(0.4196721,0.2098361)" />
        <path
           sodipodi:type="arc"
           style="opacity:1;fill:#d2a11e;fill-opacity:1;stroke:#d2a11e;stroke-width:0.5;stroke-miterlimit:4;stroke-dasharray:none;stroke-dashoffset:0;stroke-opacity:1"
           id="path7618"
           sodipodi:cx="-91.278687"
           sodipodi:cy="122.7541"
           sodipodi:rx="1.3639344"
           sodipodi:ry="1.3639344"
           d="M -89.914752,122.7541 A 1.3639344,1.3639344 0 1 1 -92.642621,122.7541 A 1.3639344,1.3639344 0 1 1 -89.914752,122.7541 z" />
        <path
           d="M -89.914752,122.7541 A 1.3639344,1.3639344 0 1 1 -92.642621,122.7541 A 1.3639344,1.3639344 0 1 1 -89.914752,122.7541 z"
           sodipodi:ry="1.3639344"
           sodipodi:rx="1.3639344"
           sodipodi:cy="122.7541"
           sodipodi:cx="-91.278687"
           id="path7620"
           style="opacity:1;fill:#d2a11e;fill-opacity:1;stroke:#d2a11e;stroke-width:0.5;stroke-miterlimit:4;stroke-dasharray:none;stroke-dashoffset:0;stroke-opacity:1"
           sodipodi:type="arc"
           transform="translate(64.629508,0.8393443)" />
        <path
           transform="translate(0.419672,84.354098)"
           sodipodi:type="arc"
           style="opacity:1;fill:#d2a11e;fill-opacity:1;stroke:#d2a11e;stroke-width:0.5;stroke-miterlimit:4;stroke-dasharray:none;stroke-dashoffset:0;stroke-opacity:1"
           id="path7622"
           sodipodi:cx="-91.278687"
           sodipodi:cy="122.7541"
           sodipodi:rx="1.3639344"
           sodipodi:ry="1.3639344"
           d="M -89.914752,122.7541 A 1.3639344,1.3639344 0 1 1 -92.642621,122.7541 A 1.3639344,1.3639344 0 1 1 -89.914752,122.7541 z" />
        <rect
           style="opacity:1;fill:#d2a11e;fill-opacity:1;stroke:#d2a11e;stroke-width:0.5;stroke-miterlimit:4;stroke-dasharray:none;stroke-dashoffset:0;stroke-opacity:1"
           id="rect7624"
           width="10.491803"
           height="2.5180328"
           x="-73.442627"
           y="145.4164" />
        <rect
           y="150.87213"
           x="-73.442627"
           height="2.5180328"
           width="10.491803"
           id="rect7626"
           style="opacity:1;fill:#d2a11e;fill-opacity:1;stroke:#d2a11e;stroke-width:0.5;stroke-miterlimit:4;stroke-dasharray:none;stroke-dashoffset:0;stroke-opacity:1" />
        <rect
           y="155.9082"
           x="-73.442627"
           height="2.5180328"
           width="10.491803"
           id="rect7632"
           style="opacity:1;fill:#d2a11e;fill-opacity:1;stroke:#d2a11e;stroke-width:0.5;stroke-miterlimit:4;stroke-dasharray:none;stroke-dashoffset:0;stroke-opacity:1" />
        <rect
           style="opacity:1;fill:#d2a11e;fill-opacity:1;stroke:#d2a11e;stroke-width:0.5;stroke-miterlimit:4;stroke-dasharray:none;stroke-dashoffset:0;stroke-opacity:1"
           id="rect7634"
           width="10.491803"
           height="2.5180328"
           x="-73.442627"
           y="161.36394" />
        <rect
           style="opacity:1;fill:#d2a11e;fill-opacity:1;stroke:#d2a11e;stroke-width:0.5;stroke-miterlimit:4;stroke-dasharray:none;stroke-dashoffset:0;stroke-opacity:1"
           id="rect7636"
           width="10.491803"
           height="2.5180328"
           x="-73.442627"
           y="150.87213" />
        <rect
           style="opacity:1;fill:#d2a11e;fill-opacity:1;stroke:#d2a11e;stroke-width:0.5;stroke-miterlimit:4;stroke-dasharray:none;stroke-dashoffset:0;stroke-opacity:1"
           id="rect7638"
           width="10.491803"
           height="2.5180328"
           x="-73.442627"
           y="155.9082" />
        <rect
           y="161.36394"
           x="-73.442627"
           height="2.5180328"
           width="10.491803"
           id="rect7640"
           style="opacity:1;fill:#d2a11e;fill-opacity:1;stroke:#d2a11e;stroke-width:0.5;stroke-miterlimit:4;stroke-dasharray:none;stroke-dashoffset:0;stroke-opacity:1" />
        <rect
           style="opacity:1;fill:#d2a11e;fill-opacity:1;stroke:#d2a11e;stroke-width:0.5;stroke-miterlimit:4;stroke-dasharray:none;stroke-dashoffset:0;stroke-opacity:1"
           id="rect7642"
           width="10.491803"
           height="2.5180328"
           x="-73.442627"
           y="167.23935" />
        <rect
           y="145.4164"
           x="-56.236069"
           height="2.5180328"
           width="10.491803"
           id="rect7644"
           style="opacity:1;fill:#d2a11e;fill-opacity:1;stroke:#d2a11e;stroke-width:0.5;stroke-miterlimit:4;stroke-dasharray:none;stroke-dashoffset:0;stroke-opacity:1" />
        <rect
           y="150.87213"
           x="-56.236069"
           height="2.5180328"
           width="10.491803"
           id="rect7646"
           style="opacity:1;fill:#d2a11e;fill-opacity:1;stroke:#d2a11e;stroke-width:0.5;stroke-miterlimit:4;stroke-dasharray:none;stroke-dashoffset:0;stroke-opacity:1" />
        <rect
           y="155.9082"
           x="-56.236069"
           height="2.5180328"
           width="10.491803"
           id="rect7648"
           style="opacity:1;fill:#d2a11e;fill-opacity:1;stroke:#d2a11e;stroke-width:0.5;stroke-miterlimit:4;stroke-dasharray:none;stroke-dashoffset:0;stroke-opacity:1" />
        <rect
           style="opacity:1;fill:#d2a11e;fill-opacity:1;stroke:#d2a11e;stroke-width:0.5;stroke-miterlimit:4;stroke-dasharray:none;stroke-dashoffset:0;stroke-opacity:1"
           id="rect7650"
           width="10.491803"
           height="2.5180328"
           x="-56.236069"
           y="161.36394" />
        <rect
           y="167.23935"
           x="-56.236069"
           height="2.5180328"
           width="10.491803"
           id="rect7652"
           style="opacity:1;fill:#d2a11e;fill-opacity:1;stroke:#d2a11e;stroke-width:0.5;stroke-miterlimit:4;stroke-dasharray:none;stroke-dashoffset:0;stroke-opacity:1" />
        <g
           id="g6575"
           transform="translate(-85.167214,147.52191)">
          <g
             inkscape:label="Shadow"
             id="layer6" />
          <g
             id="g6578"
             inkscape:label="Base"
             style="display:inline" />
          <g
             style="display:inline"
             inkscape:label="Text"
             id="layer5"
             transform="matrix(1.8060246,0,0,1.8060246,-21.02328,-19.344591)">
            <g
               transform="translate(64.853404,-14.303689)"
               id="g7245" />
            <g
               transform="translate(64.853404,-14.303689)"
               id="g7247"
               style="display:inline" />
            <g
               transform="matrix(1.0707797,0,0,1.0707797,-0.1145007,-2.8136642)"
               id="g4250">
              <path
                 sodipodi:type="arc"
                 style="fill:url(#radialGradient8039);fill-opacity:1;stroke:none;stroke-opacity:1"
                 id="path4112"
                 sodipodi:cx="24.849752"
                 sodipodi:cy="38.908627"
                 sodipodi:rx="20.203051"
                 sodipodi:ry="7.4751287"
                 d="M 45.052803,38.908627 A 20.203051,7.4751287 0 1 1 4.6467018,38.908627 A 20.203051,7.4751287 0 1 1 45.052803,38.908627 z"
                 transform="matrix(0.9088778,0,0,0.8471196,-6.4882231e-2,7.1437665)" />
              <g
                 transform="matrix(1.5217523,0,0,1.5217523,-94.654421,-28.093426)"
                 style="display:inline"
                 id="g3545">
                <path
                   d="M 83.18667,43.250526 C 83.18667,44.927117 81.731597,45.776271 80.254807,46.199762 C 78.033107,46.838257 76.2501,46.740528 74.393254,46.199762 C 72.842624,45.748038 71.461391,44.825045 71.461391,43.250526 L 71.461391,37.719079 C 71.461391,36.127186 72.78833,34.76767 74.393254,34.76767 L 80.161057,34.39267 C 82.11346,34.39267 83.389471,33.173971 83.389471,31.173789 L 83.920721,28.5 L 86.118532,28.5 C 87.825527,28.5 88.629075,29.768302 89.050395,31.449236 C 89.636767,33.783867 89.662828,35.529955 89.050395,37.349881 C 88.457507,39.117686 87.823356,40.299117 86.118532,40.299117 L 83.18667,40.299117 L 77.325116,40.299117 L 77.325116,40.287513 L 83.18667,40.287513 L 83.18667,43.250526 z"
                   style="fill:url(#linearGradient8041);fill-opacity:1;stroke:none;stroke-opacity:1"
                   id="path2732" />
                <path
                   d="M 79.522927,43.617552 C 79.522927,43.00729 80.015915,42.512131 80.621833,42.512131 C 81.229923,42.512131 81.720738,43.00729 81.720738,43.617552 C 81.720738,44.229985 81.229923,44.725144 80.621833,44.725144 C 80.015915,44.725144 79.522927,44.229985 79.522927,43.617552 z"
                   style="fill:#ffffff"
                   id="path2736" />
                <path
                   d="M 83.914374,28.499732 L 83.914374,31.093482 C 83.914374,32.734256 80.532681,34.780982 80.258124,34.780982 L 74.508124,34.780982 L 73.270251,34.906915 C 72.009258,35.230124 72.161456,36.054966 71.789374,37.593482 C 71.650693,38.163304 71.547106,38.696572 71.476874,39.187232 C 71.471857,39.222279 71.48153,39.24618 71.476874,39.280982 L 71.476874,40.905982 C 75.312553,36.625946 79.40435,36.303035 81.445624,36.312232 C 85.519083,36.330185 87.437606,35.328515 89.383124,33.124732 C 89.376972,33.081453 89.389779,33.043381 89.383124,32.999732 C 89.308257,32.508684 89.176805,31.984411 89.039374,31.437232 C 88.84188,30.649294 88.583523,29.955706 88.164374,29.437232 C 88.155991,29.426863 88.141618,29.416208 88.133124,29.405982 C 88.128313,29.402442 88.106706,29.4095 88.101874,29.405982 C 88.087594,29.3891 88.085215,29.359957 88.070624,29.343482 C 88.041267,29.32277 88.038191,29.300891 88.008124,29.280982 C 88.00067,29.272951 87.984407,29.288908 87.976874,29.280982 C 87.532518,28.992954 86.992838,28.777563 86.445624,28.687232 C 85.94965,28.605461 85.451896,28.542746 84.945624,28.499732 L 84.633124,28.499732 L 83.914374,28.499732 z"
                   style="opacity:0.83720931;fill:url(#linearGradient8043);fill-opacity:1;stroke:none;stroke-opacity:1;display:inline"
                   id="path2742" />
                <path
                   d="M 83.480513,43.250526 C 83.480513,44.927117 81.731597,45.776271 80.254807,46.199762 C 78.033107,46.838257 76.2501,46.740528 74.393254,46.199762 C 72.842624,45.748038 71.461391,44.825045 71.461391,43.250526 L 71.461391,37.425236 C 71.461391,35.539033 72.830307,34.515804 74.393254,34.515804 L 79.606394,34.484554 C 81.558797,34.484554 83.534846,32.486471 83.534846,30.486289 L 83.534846,28.5 L 86.118532,28.5 C 87.825527,28.5 88.629075,29.768302 89.050395,31.449236 C 89.636767,33.783867 89.662828,35.529955 89.050395,37.349881 C 88.457507,39.117686 87.823356,40.509005 86.118532,40.509005 L 83.480513,40.509005 L 77.325116,40.509005 L 77.325116,40.497401 L 83.480513,40.51839 L 83.480513,43.250526 z"
                   style="fill:none;fill-opacity:1;stroke:#bb9400;stroke-opacity:1"
                   id="path2744" />
                <path
                   d="M 84.036575,28.999732 L 84.036575,30.468482 C 84.036575,32.754223 81.686126,35.029115 79.445624,35.029116 L 74.383124,35.029116 C 73.060564,35.029116 71.976875,36.404442 71.976874,37.718482 L 71.976874,43.249732 C 71.976874,43.890785 72.205319,44.368849 72.664374,44.780982 C 73.123429,45.193115 73.81358,45.507046 74.539374,45.718482 C 76.329247,46.239743 77.961446,46.33362 80.101874,45.718482 C 80.796976,45.519152 81.721747,45.141602 82.186995,44.738771 C 82.652243,44.33594 82.989467,43.943382 82.989467,43.249732 L 82.989467,41.02212 L 77.320624,41.02212 L 76.820624,41.02212 L 76.820624,40.52212 L 76.820624,40.49087 L 76.820624,39.99087 L 77.320624,39.99087 L 83.195624,39.99087 L 83.695624,39.99087 L 83.695624,40.02212 L 86.133124,40.02212 C 86.870037,40.02212 87.230352,39.732154 87.596394,39.308151 C 87.962436,38.884148 88.280589,38.052018 88.570624,37.187232 C 89.150856,35.462995 89.143498,33.843132 88.570624,31.562232 C 88.370979,30.765712 88.081075,30.122434 87.695624,29.687232 C 87.310173,29.25203 86.862787,28.999732 86.133124,28.999732 L 84.036575,28.999732 z M 85.036575,29.999732 L 86.133124,29.999732 C 86.452337,29.999732 86.869139,30.257125 86.945624,30.343482 C 87.168126,30.594702 87.42426,31.103607 87.601874,31.812232 C 88.147758,33.985671 88.148955,35.341872 87.633124,36.874732 C 87.355912,37.701286 87.068191,38.479001 86.851874,38.70962 C 86.656524,38.917885 86.243793,39.02212 86.133124,39.02212 L 84.695624,39.02212 L 84.695624,38.99087 L 83.195624,38.99087 L 77.320624,38.99087 L 75.820624,38.99087 L 75.820624,40.49087 L 75.820624,40.52212 L 75.820624,42.02212 L 77.320624,42.02212 L 81.989467,42.02212 L 81.989467,43.249732 C 81.989467,43.695905 81.392158,43.973237 81.289374,44.062232 C 80.990365,44.321126 80.460389,44.575232 79.851874,44.749732 C 77.873986,45.318158 76.47655,45.231984 74.820624,44.749732 C 74.193873,44.567149 73.650766,44.299323 73.351874,44.030982 C 73.344869,44.024693 73.327678,44.006304 73.320624,43.999732 C 73.278488,43.959234 73.226633,43.908405 73.195624,43.874732 C 73.166328,43.839526 73.122714,43.781293 73.101874,43.749732 C 73.090218,43.730751 73.054029,43.680675 73.039374,43.655982 C 73.024201,43.620947 73.017168,43.570081 73.008124,43.530982 C 73.001748,43.49897 72.980215,43.441201 72.976874,43.405982 C 72.97352,43.36087 72.976874,43.300802 72.976874,43.249732 L 72.976874,37.718482 C 72.976874,36.960149 73.625291,36.029116 74.383124,36.029116 L 79.445624,36.029116 C 82.262321,36.029115 85.036575,33.325342 85.036575,30.468482 L 85.036575,29.999732 z"
                   style="fill:#ffffff;fill-opacity:0.38356162;stroke:none;stroke-width:3;stroke-miterlimit:4;stroke-dasharray:none;stroke-opacity:1"
                   id="path2746" />
                <g
                   transform="translate(3.860898e-2,19.85464)"
                   id="g3534">
                  <path
                     d="M 70.815277,4.82561 C 70.815277,3.149019 71.26483,2.236884 73.74714,1.802533 C 75.432418,1.507175 77.593309,1.470256 79.608693,1.802533 C 81.200586,2.065315 82.540556,3.251091 82.540556,4.82561 L 82.540556,10.357057 C 82.540556,11.979354 81.239677,13.308465 79.608693,13.308465 L 74.292849,13.602308 C 72.303526,13.602308 70.249136,15.340423 70.249136,17.258078 L 70.081226,19.576135 L 68.065842,19.576135 C 66.361018,19.576135 65.368528,18.346925 64.951552,16.626899 C 64.389069,14.316157 64.412958,12.939268 64.951552,10.726254 C 65.418479,8.795568 66.910471,7.777018 68.615294,7.777018 L 70.815277,7.777018 L 76.679002,7.777018 L 76.679002,7.757373 L 70.815277,7.757373 L 70.815277,4.82561 L 70.815277,4.82561 z"
                     style="fill:url(#linearGradient8045);fill-opacity:1;stroke:none;stroke-opacity:1"
                     id="path2730" />
                  <path
                     d="M 72.281209,4.458584 C 72.281209,3.84615 72.772024,3.350991 73.380114,3.350991 C 73.986032,3.350991 74.47902,3.84615 74.47902,4.458584 C 74.47902,5.068845 73.986032,5.564004 73.380114,5.564004 C 72.772024,5.564004 72.281209,5.068845 72.281209,4.458584 z"
                     style="fill:#ffffff"
                     id="path2734" />
                  <path
                     d="M 76.17451,1.558 C 75.307143,1.579011 74.474319,1.678781 73.73701,1.808 C 71.2547,2.242351 70.830761,3.16266 70.83076,4.83925 L 70.83076,7.7455 L 76.67451,7.7455 L 76.67451,7.77675 L 70.83076,7.77675 L 68.61201,7.77675 C 66.907187,7.77675 65.422687,8.783563 64.95576,10.71425 C 64.638775,12.016701 64.495317,13.036458 64.54951,14.1205 C 68.411132,9.7436 72.554663,9.423731 74.61201,9.433 C 78.68547,9.450954 80.603992,8.449283 82.54951,6.2455 L 82.54951,4.83925 C 82.54951,3.264731 81.203905,2.070781 79.61201,1.808 C 78.478356,1.621094 77.289696,1.530986 76.17451,1.558 z"
                     style="opacity:0.37674417;fill:url(#linearGradient8047);fill-opacity:1;stroke:none;stroke-opacity:1"
                     id="path2738" />
                  <path
                     d="M 70.480878,4.8948302 C 70.480878,3.2182392 72.229794,2.3690852 73.706584,1.9455942 C 75.928284,1.3070992 77.711291,1.4048282 79.568137,1.9455942 C 81.118767,2.3973182 82.5,3.3203112 82.5,4.8948302 L 82.5,10.426277 C 82.5,12.01817 81.173061,13.629552 79.568137,13.629552 L 74.106863,13.629552 C 72.573661,13.629552 70.426545,15.317001 70.426545,17.317183 L 70.426545,19.645356 L 67.842859,19.645356 C 66.135864,19.645356 65.332316,18.377054 64.910996,16.69612 C 64.324624,14.361489 64.298563,12.615401 64.910996,10.795475 C 65.503884,9.0276702 66.138035,7.6363512 67.842859,7.6363512 L 70.480878,7.6363512 L 76.636275,7.6363512 L 76.636275,7.6479552 L 70.480878,7.6269662 L 70.480878,4.8948302 z"
                     style="fill:none;fill-opacity:1;stroke:#274e70;stroke-opacity:1"
                     id="path3530" />
                  <path
                     d="M 69.924816,19.145624 L 69.924816,17.429673 C 69.924816,15.143932 72.008474,13.116241 74.248976,13.11624 L 79.578267,13.11624 C 80.900827,13.11624 81.984516,11.740914 81.984517,10.426874 L 81.984517,4.8956242 C 81.984517,4.2545712 81.756072,3.7765072 81.297017,3.3643742 C 80.837962,2.9522412 80.147811,2.6383102 79.422017,2.4268742 C 77.632144,1.9056132 75.999945,1.8117362 73.859517,2.4268742 C 73.164415,2.6262042 72.239644,3.0037542 71.774396,3.4065852 C 71.309148,3.8094162 70.971924,4.2019742 70.971924,4.8956242 L 70.971924,7.1232362 L 76.640767,7.1232362 L 77.140767,7.1232362 L 77.140767,7.6232362 L 77.140767,7.6544862 L 77.140767,8.1544862 L 76.640767,8.1544862 L 70.765767,8.1544862 L 70.265767,8.1544862 L 70.265767,8.1232362 L 67.828267,8.1232362 C 67.091354,8.1232362 66.731039,8.4132022 66.364997,8.8372052 C 65.998955,9.2612082 65.680802,10.093338 65.390767,10.958124 C 64.810535,12.682361 64.817893,14.302224 65.390767,16.583124 C 65.590412,17.379644 65.880316,18.022922 66.265767,18.458124 C 66.651218,18.893326 67.098604,19.145624 67.828267,19.145624 L 69.924816,19.145624 z M 68.924816,18.145624 L 67.828267,18.145624 C 67.509054,18.145624 67.092252,17.888231 67.015767,17.801874 C 66.793265,17.550654 66.537131,17.041749 66.359517,16.333124 C 65.813633,14.159685 65.812436,12.803484 66.328267,11.270624 C 66.605479,10.44407 66.8932,9.6663552 67.109517,9.4357362 C 67.304867,9.2274712 67.717598,9.1232362 67.828267,9.1232362 L 69.265767,9.1232362 L 69.265767,9.1544862 L 70.765767,9.1544862 L 76.640767,9.1544862 L 78.140767,9.1544862 L 78.140767,7.6544862 L 78.140767,7.6232362 L 78.140767,6.1232362 L 76.640767,6.1232362 L 71.971924,6.1232362 L 71.971924,4.8956242 C 71.971924,4.4494512 72.569233,4.1721192 72.672017,4.0831242 C 72.971026,3.8242302 73.501002,3.5701242 74.109517,3.3956242 C 76.087405,2.8271982 77.484841,2.9133722 79.140767,3.3956242 C 79.767518,3.5782072 80.310625,3.8460332 80.609517,4.1143742 C 80.616522,4.1206632 80.633713,4.1390522 80.640767,4.1456242 C 80.682903,4.1861222 80.734758,4.2369512 80.765767,4.2706242 C 80.795063,4.3058302 80.838677,4.3640632 80.859517,4.3956242 C 80.871173,4.4146052 80.907362,4.4646812 80.922017,4.4893742 C 80.93719,4.5244092 80.944223,4.5752752 80.953267,4.6143742 C 80.959643,4.6463862 80.981176,4.7041552 80.984517,4.7393742 C 80.987871,4.7844862 80.984517,4.8445542 80.984517,4.8956242 L 80.984517,10.426874 C 80.984517,11.185207 80.3361,12.11624 79.578267,12.11624 L 74.248976,12.11624 C 71.432279,12.116241 68.924816,14.572813 68.924816,17.429673 L 68.924816,18.145624 z"
                     style="fill:#ffffff;fill-opacity:0.16470588;stroke:none;stroke-width:3;stroke-miterlimit:4;stroke-dasharray:none;stroke-opacity:1"
                     id="path3532" />
                </g>
              </g>
            </g>
          </g>
        </g>
      </g>
    </g>
  </g>
</svg>
